<svg width="32" height="32" viewBox="0 0 32 32" fill="none" xmlns="http://www.w3.org/2000/svg">
  <!-- Background circle with gradient -->
  <circle cx="16" cy="16" r="16" fill="url(#gradient)"/>

  <!-- Brain icon simplified -->
  <path d="M16 6C13.5 6 11.5 7.5 11 9.5C10 9 9 9.5 9 11C9 11.5 9.2 12 9.5 12.5C9 13 8.5 13.5 8.5 14.5C8.5 15.5 9 16 9.5 16.5C9 17 8.5 18 9 19.5C9.5 21 10.5 22 12 22.5C12.5 23 13.5 23.5 15 23.8C15.5 24 16 24 16 24C16 24 16.5 24 17 23.8C18.5 23.5 19.5 23 20 22.5C21.5 22 22.5 21 23 19.5C23.5 18 23 17 22.5 16.5C23 16 23.5 15.5 23.5 14.5C23.5 13.5 23 13 22.5 12.5C22.8 12 23 11.5 23 11C23 9.5 22 9 21 9.5C20.5 7.5 18.5 6 16 6Z"
        fill="white"
        opacity="0.95"/>

  <!-- Neural connection dots -->
  <circle cx="13" cy="13" r="1.2" fill="white" opacity="0.9"/>
  <circle cx="19" cy="13" r="1.2" fill="white" opacity="0.9"/>
  <circle cx="16" cy="17" r="1.2" fill="white" opacity="0.9"/>
  <circle cx="13" cy="20" r="1.2" fill="white" opacity="0.9"/>
  <circle cx="19" cy="20" r="1.2" fill="white" opacity="0.9"/>

  <!-- Gradient definition -->
  <defs>
    <linearGradient id="gradient" x1="0" y1="0" x2="32" y2="32" gradientUnits="userSpaceOnUse">
      <stop offset="0%" stop-color="#0ea5e9"/>
      <stop offset="100%" stop-color="#0284c7"/>
    </linearGradient>
  </defs>
</svg>
